<?xml version="1.0" encoding="UTF-8" standalone="no"?>
<!-- Created with Inkscape (http://www.inkscape.org/) -->

<svg
   xmlns:osb="http://www.openswatchbook.org/uri/2009/osb"
   xmlns:dc="http://purl.org/dc/elements/1.1/"
   xmlns:cc="http://creativecommons.org/ns#"
   xmlns:rdf="http://www.w3.org/1999/02/22-rdf-syntax-ns#"
   xmlns:svg="http://www.w3.org/2000/svg"
   xmlns="http://www.w3.org/2000/svg"
   xmlns:sodipodi="http://sodipodi.sourceforge.net/DTD/sodipodi-0.dtd"
   xmlns:inkscape="http://www.inkscape.org/namespaces/inkscape"
   inkscape:export-ydpi="96.000008"
   inkscape:export-xdpi="96.000008"
   width="512"
   height="512"
   id="svg11300"
   sodipodi:version="0.32"
   inkscape:version="0.91 r13725"
   sodipodi:docname="Soundboard.svg"
   inkscape:output_extension="org.inkscape.output.svg.inkscape"
   version="1.0"
   style="display:inline;enable-background:new"
   inkscape:export-filename="suru-icon-template.png">
  <title
     id="title3004">Suru Icon Template</title>
  <sodipodi:namedview
     stroke="#ef2929"
     fill="#f57900"
     id="base"
     pagecolor="#474747"
     bordercolor="#666666"
     borderopacity="0.25490196"
     inkscape:pageopacity="0"
     inkscape:pageshadow="2"
     inkscape:zoom="0.70710678"
     inkscape:cx="139.38148"
     inkscape:cy="215.51397"
     inkscape:current-layer="layer5"
     showgrid="false"
     inkscape:grid-bbox="true"
     inkscape:document-units="px"
     inkscape:showpageshadow="false"
     inkscape:window-width="1280"
     inkscape:window-height="737"
     inkscape:window-x="-8"
     inkscape:window-y="-8"
     width="400px"
     height="300px"
     inkscape:snap-nodes="true"
     inkscape:snap-bbox="true"
     gridtolerance="10000"
     inkscape:object-nodes="true"
     inkscape:snap-grids="true"
     showguides="true"
     inkscape:guide-bbox="true"
     inkscape:window-maximized="1"
     inkscape:bbox-nodes="true"
     inkscape:bbox-paths="true"
     inkscape:snap-bbox-midpoints="true"
     inkscape:snap-bbox-edge-midpoints="true"
     inkscape:snap-global="true">
    <inkscape:grid
       spacingy="1px"
       spacingx="1px"
       id="grid5883"
       type="xygrid"
       enabled="true"
       visible="true"
       empspacing="4"
       snapvisiblegridlinesonly="true" />
    <sodipodi:guide
       position="256,256"
       orientation="-0.70710678,0.70710678"
       id="guide10813"
       inkscape:label=""
       inkscape:color="rgb(0,0,255)" />
    <sodipodi:guide
       position="256,256"
       orientation="0.70710678,0.70710678"
       id="guide10815"
       inkscape:label=""
       inkscape:color="rgb(0,0,255)" />
    <sodipodi:guide
       position="104,408"
       orientation="1,0"
       id="guide10817" />
    <sodipodi:guide
       position="120,408"
       orientation="1,0"
       id="guide10819" />
    <sodipodi:guide
       position="136,408"
       orientation="1,0"
       id="guide10821" />
    <sodipodi:guide
       position="104,392"
       orientation="0,1"
       id="guide10823" />
    <sodipodi:guide
       position="104,408"
       orientation="0,1"
       id="guide10825" />
    <sodipodi:guide
       position="104,376"
       orientation="0,1"
       id="guide10827" />
    <sodipodi:guide
       position="408,408"
       orientation="1,0"
       id="guide10829" />
    <sodipodi:guide
       position="376,408"
       orientation="1,0"
       id="guide10831" />
    <sodipodi:guide
       position="392,408"
       orientation="1,0"
       id="guide10833" />
    <sodipodi:guide
       position="104,104"
       orientation="0,1"
       id="guide10837" />
    <sodipodi:guide
       position="104,120"
       orientation="0,1"
       id="guide10839" />
    <sodipodi:guide
       position="104,136"
       orientation="0,1"
       id="guide10841" />
    <sodipodi:guide
       position="0,496"
       orientation="0,1"
       id="guide10843"
       inkscape:label=""
       inkscape:color="rgb(255,0,0)" />
    <sodipodi:guide
       position="0,16"
       orientation="0,1"
       id="guide10845"
       inkscape:label=""
       inkscape:color="rgb(255,0,0)" />
  </sodipodi:namedview>
  <defs
     id="defs3">
    <linearGradient
       id="linearGradient5460"
       osb:paint="gradient">
      <stop
         style="stop-color:#e6e6e6;stop-opacity:1"
         offset="0"
         id="stop5462" />
      <stop
         style="stop-color:#ffffff;stop-opacity:1"
         offset="1"
         id="stop5464" />
    </linearGradient>
    <linearGradient
       id="linearGradient5476"
       osb:paint="solid">
      <stop
         style="stop-color:#772953;stop-opacity:1;"
         offset="0"
         id="stop5478" />
    </linearGradient>
  </defs>
  <metadata
     id="metadata4">
    <rdf:RDF>
      <cc:Work
         rdf:about="">
        <dc:format>image/svg+xml</dc:format>
        <dc:type
           rdf:resource="http://purl.org/dc/dcmitype/StillImage" />
        <dc:creator>
          <cc:Agent>
            <dc:title>Sam Hewitt</dc:title>
          </cc:Agent>
        </dc:creator>
        <dc:source />
        <cc:license
           rdf:resource="http://creativecommons.org/licenses/by-sa/3.0/" />
        <dc:title>Suru Icon Template</dc:title>
        <dc:subject>
          <rdf:Bag />
        </dc:subject>
        <dc:date />
        <dc:rights>
          <cc:Agent>
            <dc:title />
          </cc:Agent>
        </dc:rights>
        <dc:publisher>
          <cc:Agent>
            <dc:title />
          </cc:Agent>
        </dc:publisher>
        <dc:identifier />
        <dc:relation />
        <dc:language />
        <dc:coverage />
        <dc:description />
        <dc:contributor>
          <cc:Agent>
            <dc:title />
          </cc:Agent>
        </dc:contributor>
      </cc:Work>
      <cc:Work
         rdf:about="">
        <dc:format>image/svg+xml</dc:format>
        <dc:type
           rdf:resource="http://purl.org/dc/dcmitype/StillImage" />
      </cc:Work>
      <cc:License
         rdf:about="http://creativecommons.org/licenses/by-sa/3.0/">
        <cc:permits
           rdf:resource="http://creativecommons.org/ns#Reproduction" />
        <cc:permits
           rdf:resource="http://creativecommons.org/ns#Distribution" />
        <cc:requires
           rdf:resource="http://creativecommons.org/ns#Notice" />
        <cc:requires
           rdf:resource="http://creativecommons.org/ns#Attribution" />
        <cc:permits
           rdf:resource="http://creativecommons.org/ns#DerivativeWorks" />
        <cc:requires
           rdf:resource="http://creativecommons.org/ns#ShareAlike" />
      </cc:License>
    </rdf:RDF>
  </metadata>
  <g
     style="display:inline"
     inkscape:groupmode="layer"
     inkscape:label="Icon"
     id="layer1"
     transform="translate(0,212)">
    <g
       style="display:inline"
       inkscape:label="Background"
       id="g3055"
       inkscape:groupmode="layer">
      <path
         inkscape:connector-curvature="0"
         style="color:#000000;display:inline;overflow:visible;visibility:visible;fill:#1198e4;fill-opacity:1;fill-rule:nonzero;stroke:none;stroke-width:1;marker:none;enable-background:accumulate"
         d="M 0,-212 0,-28.10156 0,116.10156 0,300 512,300 512,116.10156 512,-28.10156 512,-212 0,-212 Z"
         id="rect4158" />
      <path
         inkscape:connector-curvature="0"
         style="color:#000000;display:inline;overflow:visible;visibility:visible;fill:#55baf2;fill-opacity:1;fill-rule:nonzero;stroke:none;stroke-width:1;marker:none;enable-background:accumulate"
         d="M 0,44 0,135.94922 0,208.05078 0,300 l 512,0 0,-91.94922 0,-72.10156 L 512,44 0,44 Z"
         id="rect4158-6" />
    </g>
    <g
       inkscape:groupmode="layer"
       id="layer5"
       inkscape:label="Pictogram"
       style="display:inline">
      <g
         id="g4212"
         transform="matrix(3.3638703,0,0,4.2477876,86.965517,-168.60177)"
         style="fill:#ffffff">
        <path
           id="path4188"
           d="m 10,59.5 c 1.1,0 2,-0.9 2,-2 l 0,-15 c 0,-1.1 -0.9,-2 -2,-2 -1.1,0 -2,0.9 -2,2 l 0,15 c 0,1.1 0.9,2 2,2 z"
           inkscape:connector-curvature="0"
           style="fill:#ffffff" />
        <path
           id="path4190"
           d="m 18,35 0,30 c 0,1.1 0.9,2 2,2 1.1,0 2,-0.9 2,-2 l 0,-30 c 0,-1.1 -0.9,-2 -2,-2 -1.1,0 -2,0.9 -2,2 z"
           inkscape:connector-curvature="0"
           style="fill:#ffffff" />
        <path
           id="path4192"
           d="m 27.5,23.8 0,52.5 c 0,1.1 0.9,2 2,2 1.1,0 2,-0.9 2,-2 l 0,-52.5 c 0,-1.1 -0.9,-2 -2,-2 -1.1,0 -2,0.8 -2,2 z"
           inkscape:connector-curvature="0"
           style="fill:#ffffff" />
        <path
           id="path4194"
           d="m 39,35 0,30 c 0,1.1 0.9,2 2,2 1.1,0 2,-0.9 2,-2 l 0,-30 c 0,-1.1 -0.9,-2 -2,-2 -1.1,0 -2,0.9 -2,2 z"
           inkscape:connector-curvature="0"
           style="fill:#ffffff" />
        <path
           id="path4196"
           d="m 48,42.5 0,15 c 0,1.1 0.9,2 2,2 1.1,0 2,-0.9 2,-2 l 0,-15 c 0,-1.1 -0.9,-2 -2,-2 -1.1,0 -2,0.9 -2,2 z"
           inkscape:connector-curvature="0"
           style="fill:#ffffff" />
        <path
           id="path4198"
           d="m 58.5,35 0,30 c 0,1.1 0.9,2 2,2 1.1,0 2,-0.9 2,-2 l 0,-30 c 0,-1.1 -0.9,-2 -2,-2 -1.1,0 -2,0.9 -2,2 z"
           inkscape:connector-curvature="0"
           style="fill:#ffffff" />
        <path
           id="path4200"
           d="m 68.1,25 0,50 c 0,1.1 0.9,2 2,2 1.1,0 2,-0.9 2,-2 l 0,-50 c 0,-1.1 -0.9,-2 -2,-2 -1.1,0 -2,0.9 -2,2 z"
           inkscape:connector-curvature="0"
           style="fill:#ffffff" />
        <path
           id="path4202"
           d="m 79.5,33 c -1.1,0 -2,0.9 -2,2 l 0,30 c 0,1.1 0.9,2 2,2 1.1,0 2,-0.9 2,-2 l 0,-30 c 0,-1.1 -0.9,-2 -2,-2 z"
           inkscape:connector-curvature="0"
           style="fill:#ffffff" />
        <path
           id="path4204"
           d="m 90.5,40.5 c -1.1,0 -2,0.9 -2,2 l 0,15 c 0,1.1 0.9,2 2,2 1.1,0 2,-0.9 2,-2 l 0,-15 c 0,-1.1 -0.9,-2 -2,-2 z"
           inkscape:connector-curvature="0"
           style="fill:#ffffff" />
      </g>
    </g>
  </g>
</svg>
